<svg xmlns="http://www.w3.org/2000/svg" viewBox="0 0 512 512" style="height: 512px; width: 512px;"><defs><radialGradient id="delapouite-sickle-gradient-0"><stop offset="0%" stop-color="#4a4a4a" stop-opacity="1"></stop><stop offset="100%" stop-color="#cdcdcd" stop-opacity="0"></stop></radialGradient></defs><g class="" transform="translate(0,0)" style=""><path d="M257.563 25.156c353.16 276.87 16.918 408.895-87.875 293.25l-40.75 37.125 50.812 50.345c217.562 181.363 524.73-252.058 77.813-380.72zM110.75 364.28c-5.525 1.065-8.975 2.957-11.313 5.25-1.956 1.922-3.248 4.556-4.25 7.564l55.188 52.844c5.468-1.008 9.264-2.796 11.28-4.688 1.997-1.872 3.095-3.864 3.095-7.53l-54-53.44zm-24.72 30.314L30.407 445.28c-16.737 27 14.693 61.198 51.093 44.66l51.53-50.282-47-45.062z" fill="#a35c0f" fill-opacity="1" stroke="#000000" stroke-opacity="1" stroke-width="2" transform="translate(25.6, 25.6) scale(0.9, 0.9) rotate(0, 256, 256) skewX(0) skewY(0)"></path></g></svg>